# xmcd
#
# Track frame offsets:
#	150
#	20948
#	47543
#	69242
#	97407
#	127930
#	149923
#	167951
#	193213
#	229777
#	258532
#	287209
#	315060
#
# Disc length: 4610 seconds
# Revision: 1
# Processed by: cddbd v1.5.2PL0 Copyright (c) Steve Scherf et al.
# Submitted via: dBpowerAMP V12.0
#
DISCID=c812000d
DTITLE=The Jeremiah Johnson Band with The Sliders - Brand Spank'n Blue
DYEAR=2011
DGENRE=Blues
TTITLE0=Brand Spank'n Blue
TTITLE1=Sweet Young Thang
TTITLE2=Where'd You Learn
TTITLE3=Cut That Chain
TTITLE4=Southern Drawl
TTITLE5=Sweet Tea
TTITLE6=Fire in the Kitchen
TTITLE7=Pressure Cookin' Woman
TTITLE8=Black and Blue
TTITLE9=Wondered
TTITLE10=Invisible
TTITLE11=Put You Down
TTITLE12=Rock It
EXTD=
EXTT0=
EXTT1=
EXTT2=
EXTT3=
EXTT4=
EXTT5=
EXTT6=
EXTT7=
EXTT8=
EXTT9=
EXTT10=
EXTT11=
EXTT12=
PLAYORDER=
